{
  "accessors": [
    {
      "bufferView": 2,
      "componentType": 5126,
      "count": 2903,
      "max": [
        0.05559977516531944,
        0.05559977889060974,
        0.15222525596618652
      ],
      "min": [
        -0.05559977889060974,
        -0.05559977516531944,
        -1.1920929132713809e-08
      ],
      "type": "VEC3"
    },
    {
      "bufferView": 2,
      "byteOffset": 34836,
      "componentType": 5126,
      "count": 2903,
      "max": [
        1.0,
        1.0,
        1.0
      ],
      "min": [
        -1.0,
        -1.0,
        -1.0
      ],
      "type": "VEC3"
    },
    {
      "bufferView": 3,
      "componentType": 5126,
      "count": 2903,
      "max": [
        0.9994157552719116,
        0.9974486827850342,
        0.9975244402885437,
        1.0
      ],
      "min": [
        -0.997276246547699,
        -0.9973514080047607,
        -0.9960784912109375,
        1.0
      ],
      "type": "VEC4"
    },
    {
      "bufferView": 1,
      "componentType": 5126,
      "count": 2903,
      "max": [
        0.9847359657287598,
        0.9535298347473145
      ],
      "min": [
        0.021759897470474243,
        0.03751838207244873
      ],
      "type": "VEC2"
    },
    {
      "bufferView": 1,
      "byteOffset": 23224,
      "componentType": 5126,
      "count": 2903,
      "max": [
        0.9991405606269836,
        1.0
      ],
      "min": [
        0.0,
        0.0
      ],
      "type": "VEC2"
    },
    {
      "bufferView": 0,
      "componentType": 5125,
      "count": 14784,
      "type": "SCALAR"
    }
  ],
  "asset": {
    "extras": {
      "author": "Mark Haldane (https://sketchfab.com/mhaldane)",
      "license": "CC-BY-NC-4.0 (http://creativecommons.org/licenses/by-nc/4.0/)",
      "source": "https://sketchfab.com/3d-models/the-holy-grail-indiana-jones-f820567a7c564548a8f960f9c23baa34",
      "title": "The Holy Grail (Indiana Jones)"
    },
    "generator": "Sketchfab-15.55.0",
    "version": "2.0"
  },
  "bufferViews": [
    {
      "buffer": 0,
      "byteLength": 59136,
      "name": "floatBufferViews",
      "target": 34963
    },
    {
      "buffer": 0,
      "byteLength": 46448,
      "byteOffset": 59136,
      "byteStride": 8,
      "name": "floatBufferViews",
      "target": 34962
    },
    {
      "buffer": 0,
      "byteLength": 69672,
      "byteOffset": 105584,
      "byteStride": 12,
      "name": "floatBufferViews",
      "target": 34962
    },
    {
      "buffer": 0,
      "byteLength": 46448,
      "byteOffset": 175256,
      "byteStride": 16,
      "name": "floatBufferViews",
      "target": 34962
    }
  ],
  "buffers": [
    {
      "byteLength": 221704,
      "uri": "scene.bin"
    }
  ],
  "images": [
    {
      "uri": "textures/Scene_-_Root_baseColor.png"
    },
    {
      "uri": "textures/Scene_-_Root_metallicRoughness.png"
    },
    {
      "uri": "textures/Scene_-_Root_normal.png"
    }
  ],
  "materials": [
    {
      "doubleSided": true,
      "name": "Scene_-_Root",
      "normalTexture": {
        "index": 2
      },
      "pbrMetallicRoughness": {
        "baseColorTexture": {
          "index": 0
        },
        "metallicRoughnessTexture": {
          "index": 1
        }
      }
    }
  ],
  "meshes": [
    {
      "name": "Grail__0",
      "primitives": [
        {
          "attributes": {
            "NORMAL": 1,
            "POSITION": 0,
            "TANGENT": 2,
            "TEXCOORD_0": 3,
            "TEXCOORD_1": 4
          },
          "indices": 5,
          "material": 0,
          "mode": 4
        }
      ]
    }
  ],
  "nodes": [
    {
      "children": [
        1
      ],
      "matrix": [
        1.0,
        0.0,
        0.0,
        0.0,
        0.0,
        2.220446049250313e-16,
        -1.0,
        0.0,
        0.0,
        1.0,
        2.220446049250313e-16,
        0.0,
        0.0,
        0.0,
        0.0,
        1.0
      ],
      "name": "Sketchfab_model"
    },
    {
      "children": [
        2
      ],
      "matrix": [
        0.009999999776482582,
        0.0,
        0.0,
        0.0,
        0.0,
        0.0,
        0.009999999776482582,
        0.0,
        0.0,
        -0.009999999776482582,
        0.0,
        0.0,
        0.0,
        0.0,
        0.0,
        1.0
      ],
      "name": "535becaedcfd44328d2b31a79802fd37.fbx"
    },
    {
      "children": [
        3
      ],
      "name": "RootNode"
    },
    {
      "children": [
        4
      ],
      "matrix": [
        923.8795055196681,
        1.644488589747084e-05,
        -382.68349752861474,
        0.0,
        -382.6834975286149,
        6.868620339162135e-05,
        -923.8795055196656,
        0.0,
        1.1091983470601363e-05,
        999.9999999999976,
        6.975096200623199e-05,
        0.0,
        -7.450580596923828e-08,
        0.0,
        1.862645149230957e-08,
        1.0
      ],
      "name": "Grail"
    },
    {
      "mesh": 0,
      "name": "Grail__0"
    }
  ],
  "samplers": [
    {
      "magFilter": 9729,
      "minFilter": 9987,
      "wrapS": 10497,
      "wrapT": 10497
    }
  ],
  "scene": 0,
  "scenes": [
    {
      "name": "Sketchfab_Scene",
      "nodes": [
        0
      ]
    }
  ],
  "textures": [
    {
      "sampler": 0,
      "source": 0
    },
    {
      "sampler": 0,
      "source": 1
    },
    {
      "sampler": 0,
      "source": 2
    }
  ]
}
