# Blender 3.3.1
# www.blender.org
mtllib wall_doorway.mtl
o Cube
v 1.000000 0.000000 0.500000
v 1.000000 4.000000 0.500000
v 1.000000 0.000000 -0.500000
v 1.000000 4.000000 -0.500000
v 3.150000 0.000000 0.500000
v 3.150000 4.000000 0.500000
v 3.150000 0.000000 -0.500000
v 3.150000 4.000000 -0.500000
v 3.150000 2.524538 -0.500000
v 3.150000 2.524538 0.500000
v -3.150000 2.524538 0.500000
v -3.150000 4.000000 0.500000
v -3.150000 4.000000 -0.500000
v -3.150000 2.524538 -0.500000
v -1.000000 4.000000 0.500000
v -1.000000 4.000000 -0.500000
v -3.150000 -0.025462 0.500000
v -3.150000 -0.025462 -0.500000
v -1.000000 -0.025462 0.500000
v -1.000000 -0.025462 -0.500000
v 0.680201 2.524538 0.500000
v 1.000000 2.204738 0.500000
v 1.319799 2.524538 0.500000
v 1.000000 2.844337 0.500000
v 1.000000 2.204738 -0.500000
v 0.680201 2.524538 -0.500000
v 1.000000 2.844337 -0.500000
v 1.319799 2.524538 -0.500000
v -1.000000 2.204738 0.500000
v -0.680201 2.524538 0.500000
v -1.000000 2.844337 0.500000
v -1.319799 2.524538 0.500000
v -0.680201 2.524538 -0.500000
v -1.000000 2.204738 -0.500000
v -1.319799 2.524538 -0.500000
v -1.000000 2.844337 -0.500000
vn 1.0000 -0.0000 -0.0000
vn -0.0000 -0.0000 1.0000
vn -1.0000 -0.0000 -0.0000
vn -0.0000 -1.0000 -0.0000
vn -0.0000 1.0000 -0.0000
vn -0.0000 -0.0000 -1.0000
vn -0.7071 -0.7071 -0.0000
vn 0.7071 -0.7071 -0.0000
vt 0.375000 0.000000
vt 0.125000 0.750000
vt 0.375000 1.000000
vt 0.875000 0.750000
vt 0.625000 1.000000
vt 0.125000 0.500000
vt 0.375000 0.250000
vt 0.625000 0.250000
vt 0.875000 0.500000
vt 0.375000 0.750000
vt 0.625000 0.750000
vt 0.375000 0.500000
vt 0.625000 0.500000
vt 0.532784 0.500000
vt 0.532784 0.750000
vt 0.532784 0.000000
vt 0.532784 1.000000
vt 0.625000 0.000000
vt 0.625000 1.000000
vt 0.875000 0.750000
vt 0.875000 0.500000
vt 0.625000 0.250000
vt 0.532784 0.250000
vt 0.875000 0.750000
vt 0.625000 1.000000
vt 0.875000 0.500000
vt 0.625000 0.250000
vt 0.532784 1.000000
vt 0.532784 0.000000
vt 0.532784 0.250000
vt 0.532784 1.000000
vt 0.532784 0.000000
vt 0.532784 0.250000
vt 0.532784 0.000000
vt 0.532784 1.000000
vt 0.512796 1.000000
vt 0.512796 0.000000
vt 0.532784 0.920050
vt 0.532784 1.000000
vt 0.552771 1.000000
vt 0.512796 0.250000
vt 0.532784 0.250000
vt 0.552771 0.250000
vt 0.532784 0.329950
vt 0.532784 0.000000
vt 0.532784 1.000000
vt 0.532784 0.000000
vt 0.532784 1.000000
vt 0.532784 1.000000
vt 0.552771 1.000000
vt 0.532784 1.000000
vt 0.532784 0.250000
vt 0.532784 0.250000
vt 0.532784 0.250000
vt 0.552771 0.250000
s 0
f 29/45/1 20/33/1 34/53/1
f 32/51/2 17/28/2 19/31/2
f 8/13/1 10/15/1 9/14/1
f 22/37/3 3/7/3 1/1/3
f 7/12/4 1/2/4 3/6/4
f 4/9/5 6/11/5 8/13/5
f 6/11/2 24/40/2 23/38/2
f 9/14/1 5/10/1 7/12/1
f 27/43/6 33/52/6 16/27/6
f 21/34/4 33/52/4 26/42/4
f 12/18/3 14/23/3 11/16/3
f 31/50/2 12/19/2 11/17/2
f 16/26/5 12/20/5 15/24/5
f 27/43/6 8/13/6 9/14/6
f 4/9/5 15/24/5 2/4/5
f 25/41/6 9/14/6 7/12/6
f 10/15/2 22/36/2 1/3/2
f 19/32/4 18/30/4 20/33/4
f 14/23/3 17/29/3 11/16/3
f 35/54/6 20/33/6 18/30/6
f 36/55/6 14/23/6 13/22/6
f 22/36/2 24/39/2 21/35/2
f 26/42/6 28/44/6 25/41/6
f 30/48/2 32/51/2 29/46/2
f 34/53/6 36/55/6 33/52/6
f 26/42/7 22/37/7 21/34/7
f 34/53/8 30/47/8 29/45/8
f 24/40/2 15/25/2 30/48/2
f 29/45/1 19/32/1 20/33/1
f 19/31/2 29/46/2 32/51/2
f 32/51/2 11/17/2 17/28/2
f 8/13/1 6/11/1 10/15/1
f 22/37/3 25/41/3 3/7/3
f 7/12/4 5/10/4 1/2/4
f 4/9/5 2/4/5 6/11/5
f 23/38/2 10/15/2 6/11/2
f 6/11/2 2/5/2 24/40/2
f 9/14/1 10/15/1 5/10/1
f 16/27/6 4/8/6 27/43/6
f 27/43/6 26/42/6 33/52/6
f 33/52/6 36/55/6 16/27/6
f 21/34/4 30/47/4 33/52/4
f 12/18/3 13/22/3 14/23/3
f 11/17/2 32/51/2 31/50/2
f 31/50/2 15/25/2 12/19/2
f 16/26/5 13/21/5 12/20/5
f 9/14/6 28/44/6 27/43/6
f 27/43/6 4/8/6 8/13/6
f 4/9/5 16/26/5 15/24/5
f 7/12/6 3/7/6 25/41/6
f 25/41/6 28/44/6 9/14/6
f 1/3/2 5/10/2 10/15/2
f 10/15/2 23/38/2 22/36/2
f 19/32/4 17/29/4 18/30/4
f 14/23/3 18/30/3 17/29/3
f 18/30/6 14/23/6 35/54/6
f 35/54/6 34/53/6 20/33/6
f 13/22/6 16/27/6 36/55/6
f 36/55/6 35/54/6 14/23/6
f 22/36/2 23/38/2 24/39/2
f 26/42/6 27/43/6 28/44/6
f 30/48/2 31/49/2 32/51/2
f 34/53/6 35/54/6 36/55/6
f 26/42/7 25/41/7 22/37/7
f 34/53/8 33/52/8 30/47/8
f 30/48/2 21/35/2 24/40/2
f 24/40/2 2/5/2 15/25/2
f 15/25/2 31/50/2 30/48/2
