# Blender 3.3.1
# www.blender.org
mtllib Ceiling.mtl
o Cube
v 5.700000 -0.200004 5.700000
v 5.700000 -0.000004 5.700000
v 5.700000 -0.199996 -5.700000
v 5.700000 0.000004 -5.700000
v -5.700000 -0.200004 5.700000
v -5.700000 -0.000004 5.700000
v -5.700000 -0.199996 -5.700000
v -5.700000 0.000004 -5.700000
v 5.634717 -0.165462 0.021130
v 5.634717 -0.165462 -0.022406
v -0.004270 -0.165466 5.616581
v 0.039266 -0.165466 5.616581
v 0.039266 -0.165458 -5.617857
v -0.004270 -0.165458 -5.617857
v -5.599722 -0.165462 -0.022406
v -5.599722 -0.165462 0.021130
v -0.104548 -0.200000 0.104548
v -0.104548 -0.200000 -0.104548
v 0.104548 -0.200000 -0.104548
v 0.104548 -0.200000 0.104548
v 5.634717 -0.165461 -2.828870
v 5.634717 -0.165461 -2.872406
v -2.854270 -0.165466 5.616581
v -2.810734 -0.165466 5.616581
v -2.810734 -0.165458 -5.617857
v -2.854270 -0.165458 -5.617857
v -5.599722 -0.165461 -2.872406
v -5.599722 -0.165461 -2.828870
v 5.634717 -0.165464 2.871130
v 5.634717 -0.165464 2.827594
v 2.845730 -0.165466 5.616581
v 2.889266 -0.165466 5.616581
v 2.889266 -0.165458 -5.617857
v 2.845730 -0.165458 -5.617857
v -5.599722 -0.165464 2.827594
v -5.599722 -0.165464 2.871130
v 2.954548 -0.200000 -0.104548
v 2.954548 -0.200000 0.104548
v 2.745452 -0.200000 0.104548
v 2.745452 -0.200000 -0.104548
v -2.745452 -0.200000 0.104548
v -2.954548 -0.200000 0.104548
v -2.954548 -0.200000 -0.104548
v -2.745452 -0.200000 -0.104548
v 0.104548 -0.200001 2.954548
v -0.104548 -0.200001 2.954548
v -0.104548 -0.200001 2.745452
v 0.104548 -0.200001 2.745452
v 0.104548 -0.199999 -2.745452
v -0.104548 -0.199999 -2.745452
v -0.104548 -0.199999 -2.954548
v 0.104548 -0.199999 -2.954548
v -2.745452 -0.199999 -2.954548
v -2.745452 -0.199999 -2.745452
v -2.954548 -0.199999 -2.745452
v -2.954548 -0.199999 -2.954548
v -2.745452 -0.200001 2.745452
v -2.745452 -0.200001 2.954548
v -2.954548 -0.200001 2.954548
v -2.954548 -0.200001 2.745452
v 2.954548 -0.200001 2.745452
v 2.954548 -0.200001 2.954548
v 2.745452 -0.200001 2.954548
v 2.745452 -0.200001 2.745452
v 2.954548 -0.199999 -2.954548
v 2.954548 -0.199999 -2.745452
v 2.745452 -0.199999 -2.745452
v 2.745452 -0.199999 -2.954548
v 2.889266 -0.165462 -0.022406
v 5.700000 -0.200000 -0.104548
v 5.700000 -0.200000 0.104548
v 2.889266 -0.165462 0.021130
v -2.810734 -0.165462 -0.022406
v -0.004270 -0.165462 -0.022406
v -0.004270 -0.165462 0.021130
v -2.810734 -0.165462 0.021130
v 0.039266 -0.165464 2.871130
v 0.104548 -0.200004 5.700000
v -0.104548 -0.200004 5.700000
v -0.004270 -0.165464 2.871130
v 0.039266 -0.165461 -2.828870
v 0.039266 -0.165462 -0.022406
v -0.004270 -0.165461 -2.828870
v 2.845730 -0.165462 -0.022406
v 2.845730 -0.165462 0.021130
v 0.039266 -0.165462 0.021130
v -5.700000 -0.200000 0.104548
v -5.700000 -0.200000 -0.104548
v -2.854270 -0.165462 -0.022406
v -2.854270 -0.165462 0.021130
v 0.039266 -0.165464 2.827594
v -0.004270 -0.165464 2.827594
v -0.104548 -0.199996 -5.700000
v 0.104548 -0.199996 -5.700000
v 0.039266 -0.165461 -2.872406
v -0.004270 -0.165461 -2.872406
v -2.810734 -0.165461 -2.872406
v -2.810734 -0.165461 -2.828870
v -5.700000 -0.199999 -2.745452
v -5.700000 -0.199999 -2.954548
v -2.854270 -0.165461 -2.872406
v -2.854270 -0.165461 -2.828870
v -2.954548 -0.199996 -5.700000
v -2.745452 -0.199996 -5.700000
v -2.810734 -0.165464 2.827594
v -2.810734 -0.165464 2.871130
v -5.700000 -0.200001 2.954548
v -5.700000 -0.200001 2.745452
v -2.854270 -0.165464 2.827594
v -2.854270 -0.165464 2.871130
v -2.745452 -0.200004 5.700000
v -2.954548 -0.200004 5.700000
v 2.889266 -0.165464 2.827594
v 5.700000 -0.200001 2.745452
v 5.700000 -0.200001 2.954548
v 2.889266 -0.165464 2.871130
v 2.845730 -0.165464 2.827594
v 2.845730 -0.165464 2.871130
v 2.954548 -0.200004 5.700000
v 2.745452 -0.200004 5.700000
v 2.889266 -0.165461 -2.872406
v 5.700000 -0.199999 -2.954548
v 5.700000 -0.199999 -2.745452
v 2.889266 -0.165461 -2.828870
v 2.845730 -0.165461 -2.872406
v 2.845730 -0.165461 -2.828870
v 2.745452 -0.199996 -5.700000
v 2.954548 -0.199996 -5.700000
vn -0.0000 1.0000 -0.0000
vn -0.0000 -1.0000 -0.0000
vn -0.0000 -0.0000 1.0000
vn -1.0000 -0.0000 -0.0000
vn 1.0000 -0.0000 -0.0000
vn -0.0000 -0.0000 -1.0000
vn -0.0000 -0.9218 0.3876
vn -0.4676 -0.8839 -0.0000
vn -0.0000 -0.9239 -0.3825
vn 0.3256 -0.9455 -0.0000
vn 0.3257 -0.9455 -0.0000
vn -0.0000 -0.0000 -0.0000
vt 0.625000 0.500000
vt 0.375000 0.500000
vt 0.625000 0.750000
vt 0.375000 0.750000
vt 0.875000 0.500000
vt 0.625000 0.250000
vt 0.125000 0.500000
vt 0.375000 0.250000
vt 0.875000 0.750000
vt 0.625000 0.000000
vt 0.625000 1.000000
vt 0.125000 0.750000
vt 0.375000 0.000000
vt 0.375000 1.000000
vt 0.626815 0.624523
vt 0.626815 0.625477
vt 0.750477 0.501815
vt 0.749523 0.501815
vt 0.749523 0.748185
vt 0.750477 0.748185
vt 0.873185 0.625477
vt 0.873185 0.624523
vt 0.752293 0.622707
vt 0.752293 0.627293
vt 0.747707 0.627293
vt 0.747707 0.622707
vt 0.626815 0.687023
vt 0.626815 0.687977
vt 0.812977 0.501815
vt 0.812023 0.501815
vt 0.812023 0.748185
vt 0.812977 0.748185
vt 0.873185 0.687977
vt 0.873185 0.687023
vt 0.626815 0.562023
vt 0.626815 0.562977
vt 0.687977 0.501815
vt 0.687023 0.501815
vt 0.687023 0.748185
vt 0.687977 0.748185
vt 0.873185 0.562977
vt 0.873185 0.562023
vt 0.685207 0.627293
vt 0.685207 0.622707
vt 0.689793 0.622707
vt 0.689793 0.627293
vt 0.810207 0.622707
vt 0.814793 0.622707
vt 0.814793 0.627293
vt 0.810207 0.627293
vt 0.747707 0.560207
vt 0.752293 0.560207
vt 0.752293 0.564793
vt 0.747707 0.564793
vt 0.747707 0.685207
vt 0.752293 0.685207
vt 0.752293 0.689793
vt 0.747707 0.689793
vt 0.810207 0.689793
vt 0.810207 0.685207
vt 0.814793 0.685207
vt 0.814793 0.689793
vt 0.810207 0.564793
vt 0.810207 0.560207
vt 0.814793 0.560207
vt 0.814793 0.564793
vt 0.685207 0.564793
vt 0.685207 0.560207
vt 0.689793 0.560207
vt 0.689793 0.564793
vt 0.685207 0.689793
vt 0.685207 0.685207
vt 0.689793 0.685207
vt 0.689793 0.689793
vt 0.687023 0.625477
vt 0.625000 0.627293
vt 0.625000 0.622707
vt 0.687023 0.624523
vt 0.812023 0.625477
vt 0.750477 0.625477
vt 0.750477 0.624523
vt 0.812023 0.624523
vt 0.749523 0.562023
vt 0.625000 0.377293
vt 0.747707 0.500000
vt 0.625000 0.372707
vt 0.752293 0.500000
vt 0.750477 0.562023
vt 0.749523 0.687023
vt 0.749523 0.625477
vt 0.750477 0.687023
vt 0.687977 0.625477
vt 0.687977 0.624523
vt 0.749523 0.624523
vt 0.625000 0.127293
vt 0.875000 0.622707
vt 0.625000 0.122707
vt 0.875000 0.627293
vt 0.812977 0.625477
vt 0.812977 0.624523
vt 0.749523 0.562977
vt 0.750477 0.562977
vt 0.625000 0.877293
vt 0.752293 0.750000
vt 0.625000 0.872707
vt 0.747707 0.750000
vt 0.749523 0.687977
vt 0.750477 0.687977
vt 0.812023 0.687977
vt 0.812022 0.687023
vt 0.625000 0.064793
vt 0.875000 0.685207
vt 0.625000 0.060207
vt 0.875000 0.689793
vt 0.812977 0.687977
vt 0.812977 0.687023
vt 0.625000 0.939793
vt 0.814793 0.750000
vt 0.625000 0.935207
vt 0.810207 0.750000
vt 0.812023 0.562977
vt 0.812023 0.562023
vt 0.625000 0.189793
vt 0.875000 0.560207
vt 0.625000 0.185207
vt 0.875000 0.564793
vt 0.812977 0.562977
vt 0.812977 0.562023
vt 0.625000 0.314793
vt 0.810207 0.500000
vt 0.625000 0.310207
vt 0.814793 0.500000
vt 0.687023 0.562977
vt 0.625000 0.564793
vt 0.625000 0.560207
vt 0.687023 0.562023
vt 0.687977 0.562977
vt 0.687977 0.562023
vt 0.625000 0.439793
vt 0.685207 0.500000
vt 0.625000 0.435207
vt 0.689793 0.500000
vt 0.687023 0.687977
vt 0.625000 0.689793
vt 0.625000 0.685207
vt 0.687023 0.687023
vt 0.687977 0.687977
vt 0.687977 0.687023
vt 0.625000 0.814793
vt 0.689793 0.750000
vt 0.625000 0.810207
vt 0.685207 0.750000
s 0
usemtl Material.001
f 4/4/1 6/7/1 2/2/1
f 45/51/2 120/142/2 78/85/2
f 99/112/2 43/49/2 88/98/2
f 94/106/2 68/74/2 52/58/2
f 107/124/2 112/132/2 5/5/2
f 104/120/2 51/57/2 53/59/2
f 66/72/2 70/76/2 37/43/2
f 128/152/2 122/144/2 65/71/2
f 87/96/2 60/66/2 108/126/2
f 49/55/2 40/46/2 19/25/2
f 54/60/2 18/24/2 44/50/2
f 62/68/2 1/1/2 119/140/2
f 78/84/3 119/139/3 6/8/3
f 7/9/2 56/62/2 100/114/2
f 87/95/4 107/123/4 8/13/4
f 58/64/2 79/87/2 111/130/2
f 41/47/2 47/53/2 57/63/2
f 70/76/5 122/144/5 2/2/5
f 20/26/2 64/70/2 48/54/2
f 93/103/6 103/117/6 4/4/6
f 74/80/2 86/94/2 75/81/2
f 69/75/2 85/93/2 84/92/2
f 90/100/2 73/79/2 76/82/2
f 77/83/2 92/102/2 91/101/2
f 81/89/2 96/108/2 95/107/2
f 98/110/2 101/115/2 97/109/2
f 106/122/2 109/127/2 105/121/2
f 116/136/2 117/137/2 113/133/2
f 124/146/2 125/147/2 121/143/2
f 10/16/2 72/78/2 69/75/2
f 74/80/2 76/82/2 73/79/2
f 12/18/2 80/88/2 77/83/2
f 82/90/2 83/91/2 81/89/2
f 84/92/2 86/94/2 82/90/2
f 89/99/2 16/22/2 15/21/2
f 91/101/2 75/81/2 86/94/2
f 95/107/2 14/20/2 13/19/2
f 96/108/2 98/110/2 97/109/2
f 101/115/2 28/34/2 27/33/2
f 73/79/2 102/116/2 98/110/2
f 97/109/2 26/32/2 25/31/2
f 92/102/2 106/122/2 105/121/2
f 109/127/2 36/42/2 35/41/2
f 24/30/2 110/128/2 106/122/2
f 105/121/2 90/100/2 76/82/2
f 30/36/2 116/136/2 113/133/2
f 117/137/2 77/83/2 91/101/2
f 32/38/2 118/138/2 116/136/2
f 113/133/2 85/93/2 72/78/2
f 22/28/2 124/146/2 121/143/2
f 125/147/2 81/89/2 95/107/2
f 69/75/2 126/148/2 124/146/2
f 121/143/2 34/40/2 33/39/2
f 38/44/2 114/134/2 61/67/2
f 10/16/7 37/43/7 70/76/7
f 9/15/8 70/76/8 71/77/8
f 9/15/9 38/44/9 72/78/9
f 73/79/7 18/24/7 74/80/7
f 76/82/9 17/23/9 41/47/9
f 12/18/8 45/51/8 78/85/8
f 11/17/9 78/85/9 79/87/9
f 11/17/10 46/52/10 80/88/10
f 82/90/8 49/55/8 19/25/8
f 74/80/10 50/56/10 83/91/10
f 82/90/7 40/46/7 84/92/7
f 86/94/9 39/45/9 20/26/9
f 16/22/10 88/98/10 15/21/10
f 15/21/7 43/49/7 89/99/7
f 16/22/9 42/48/9 87/96/9
f 91/101/8 20/26/8 48/54/8
f 92/102/10 17/23/10 75/81/10
f 14/20/7 94/106/7 13/19/7
f 13/19/8 52/58/8 95/107/8
f 14/20/10 51/57/10 93/104/10
f 97/109/7 51/57/7 96/108/7
f 98/110/9 50/56/9 54/60/9
f 28/34/11 100/114/11 27/33/11
f 27/33/7 56/62/7 101/115/7
f 28/34/9 55/61/9 99/112/9
f 73/79/8 54/60/8 44/50/8
f 89/99/10 55/61/10 102/116/10
f 26/32/7 104/120/7 25/31/7
f 25/31/8 53/59/8 97/109/8
f 26/32/10 56/62/10 103/118/10
f 105/121/7 47/53/7 92/102/7
f 106/122/9 46/52/9 58/64/9
f 36/42/10 108/126/10 35/41/10
f 35/41/7 60/66/7 109/127/7
f 36/42/9 59/65/9 107/124/9
f 24/30/8 58/64/8 111/130/8
f 23/29/9 111/130/9 112/132/9
f 23/29/10 59/65/10 110/128/10
f 105/121/8 41/47/8 57/63/8
f 109/127/10 42/48/10 90/100/10
f 30/36/7 61/67/7 114/134/7
f 29/35/8 114/134/8 115/135/8
f 29/35/9 62/68/9 116/136/9
f 91/101/7 64/70/7 117/137/7
f 77/83/9 63/69/9 45/51/9
f 32/38/8 62/68/8 119/140/8
f 31/37/9 119/140/9 120/142/9
f 31/37/10 63/69/10 118/138/10
f 113/133/8 38/44/8 61/67/8
f 117/137/10 39/45/10 85/93/10
f 22/28/7 65/71/7 122/144/7
f 21/27/8 122/144/8 123/145/8
f 21/27/9 66/72/9 124/146/9
f 95/107/7 68/74/7 125/147/7
f 81/89/9 67/73/9 49/55/9
f 69/75/8 66/72/8 37/43/8
f 84/92/10 67/73/10 126/148/10
f 34/40/7 128/152/7 33/39/7
f 33/39/8 65/71/8 121/143/8
f 34/40/10 68/74/10 127/150/10
f 4/4/1 8/12/1 6/7/1
f 45/51/2 63/69/2 120/142/2
f 99/112/2 55/61/2 43/49/2
f 94/106/2 127/150/2 68/74/2
f 107/124/2 59/65/2 112/132/2
f 104/120/2 93/104/2 51/57/2
f 66/72/2 123/145/2 70/76/2
f 128/152/2 3/3/2 122/144/2
f 87/96/2 42/48/2 60/66/2
f 49/55/2 67/73/2 40/46/2
f 54/60/2 50/56/2 18/24/2
f 62/68/2 115/135/2 1/1/2
f 6/8/3 5/6/3 112/131/3
f 111/129/6 79/86/6 78/84/6
f 6/8/3 112/131/3 111/129/3
f 1/1/3 2/2/3 6/8/3
f 78/84/6 120/141/6 119/139/6
f 119/139/3 1/1/3 6/8/3
f 6/8/3 111/129/3 78/84/3
f 7/9/2 103/118/2 56/62/2
f 8/13/4 7/10/4 100/113/4
f 99/111/1 88/97/1 87/95/1
f 8/13/4 100/113/4 99/111/4
f 5/6/4 6/8/4 8/13/4
f 87/95/12 108/125/12 107/123/12
f 107/123/4 5/6/4 8/13/4
f 8/13/4 99/111/4 87/95/4
f 58/64/2 46/52/2 79/87/2
f 41/47/2 17/23/2 47/53/2
f 2/2/5 1/1/5 115/135/5
f 114/134/1 71/77/1 70/76/1
f 2/2/5 115/135/5 114/134/5
f 3/3/5 4/4/5 2/2/5
f 70/76/12 123/145/12 122/144/12
f 122/144/5 3/3/5 2/2/5
f 2/2/5 114/134/5 70/76/5
f 20/26/2 39/45/2 64/70/2
f 4/4/6 3/3/6 128/151/6
f 127/149/6 94/105/6 93/103/6
f 4/4/6 128/151/6 127/149/6
f 7/11/6 8/14/6 4/4/6
f 93/103/6 104/119/6 103/117/6
f 103/117/6 7/11/6 4/4/6
f 4/4/6 127/149/6 93/103/6
f 74/80/2 82/90/2 86/94/2
f 69/75/2 72/78/2 85/93/2
f 90/100/2 89/99/2 73/79/2
f 77/83/2 80/88/2 92/102/2
f 81/89/2 83/91/2 96/108/2
f 98/110/2 102/116/2 101/115/2
f 106/122/2 110/128/2 109/127/2
f 116/136/2 118/138/2 117/137/2
f 124/146/2 126/148/2 125/147/2
f 10/16/2 9/15/2 72/78/2
f 74/80/2 75/81/2 76/82/2
f 12/18/2 11/17/2 80/88/2
f 82/90/2 74/80/2 83/91/2
f 84/92/2 85/93/2 86/94/2
f 89/99/2 90/100/2 16/22/2
f 91/101/2 92/102/2 75/81/2
f 95/107/2 96/108/2 14/20/2
f 96/108/2 83/91/2 98/110/2
f 101/115/2 102/116/2 28/34/2
f 73/79/2 89/99/2 102/116/2
f 97/109/2 101/115/2 26/32/2
f 92/102/2 80/88/2 106/122/2
f 109/127/2 110/128/2 36/42/2
f 24/30/2 23/29/2 110/128/2
f 105/121/2 109/127/2 90/100/2
f 30/36/2 29/35/2 116/136/2
f 117/137/2 118/138/2 77/83/2
f 32/38/2 31/37/2 118/138/2
f 113/133/2 117/137/2 85/93/2
f 22/28/2 21/27/2 124/146/2
f 125/147/2 126/148/2 81/89/2
f 69/75/2 84/92/2 126/148/2
f 121/143/2 125/147/2 34/40/2
f 38/44/2 71/77/2 114/134/2
f 10/16/7 69/75/7 37/43/7
f 9/15/8 10/16/8 70/76/8
f 9/15/9 71/77/9 38/44/9
f 73/79/7 44/50/7 18/24/7
f 76/82/9 75/81/9 17/23/9
f 12/18/8 77/83/8 45/51/8
f 11/17/9 12/18/9 78/85/9
f 11/17/10 79/87/10 46/52/10
f 82/90/8 81/89/8 49/55/8
f 74/80/10 18/24/10 50/56/10
f 82/90/7 19/25/7 40/46/7
f 86/94/9 85/93/9 39/45/9
f 16/22/10 87/96/10 88/98/10
f 15/21/7 88/98/7 43/49/7
f 16/22/9 90/100/9 42/48/9
f 91/101/8 86/94/8 20/26/8
f 92/102/10 47/53/10 17/23/10
f 14/20/7 93/104/7 94/106/7
f 13/19/8 94/106/8 52/58/8
f 14/20/10 96/108/10 51/57/10
f 97/109/7 53/59/7 51/57/7
f 98/110/9 83/91/9 50/56/9
f 28/34/11 99/112/11 100/114/11
f 27/33/7 100/114/7 56/62/7
f 28/34/9 102/116/9 55/61/9
f 73/79/8 98/110/8 54/60/8
f 89/99/10 43/49/10 55/61/10
f 26/32/7 103/118/7 104/120/7
f 25/31/8 104/120/8 53/59/8
f 26/32/10 101/115/10 56/62/10
f 105/121/7 57/63/7 47/53/7
f 106/122/9 80/88/9 46/52/9
f 36/42/10 107/124/10 108/126/10
f 35/41/7 108/126/7 60/66/7
f 36/42/9 110/128/9 59/65/9
f 24/30/8 106/122/8 58/64/8
f 23/29/9 24/30/9 111/130/9
f 23/29/10 112/132/10 59/65/10
f 105/121/8 76/82/8 41/47/8
f 109/127/10 60/66/10 42/48/10
f 30/36/7 113/133/7 61/67/7
f 29/35/8 30/36/8 114/134/8
f 29/35/9 115/135/9 62/68/9
f 91/101/7 48/54/7 64/70/7
f 77/83/9 118/138/9 63/69/9
f 32/38/8 116/136/8 62/68/8
f 31/37/9 32/38/9 119/140/9
f 31/37/10 120/142/10 63/69/10
f 113/133/8 72/78/8 38/44/8
f 117/137/10 64/70/10 39/45/10
f 22/28/7 121/143/7 65/71/7
f 21/27/8 22/28/8 122/144/8
f 21/27/9 123/145/9 66/72/9
f 95/107/7 52/58/7 68/74/7
f 81/89/9 126/148/9 67/73/9
f 69/75/8 124/146/8 66/72/8
f 84/92/10 40/46/10 67/73/10
f 34/40/7 127/150/7 128/152/7
f 33/39/8 128/152/8 65/71/8
f 34/40/10 125/147/10 68/74/10
