# Blender 3.3.1
# www.blender.org
mtllib Wall_corner.mtl
o Cube.003
v 0.000519 4.005445 -0.009299
v -0.015012 4.008977 -0.058035
v 0.139704 0.014081 -0.334989
v 0.155235 0.010549 -0.286253
v 0.015283 4.012294 -0.116489
v 0.064137 4.012409 -0.132050
v 0.218853 0.017514 -0.409004
v 0.169999 0.017398 -0.393443
v 0.107908 4.002454 0.005301
v 0.059054 4.002338 0.020861
v 0.213770 0.007443 -0.256092
v 0.262625 0.007558 -0.271653
v 0.122672 4.009303 -0.101889
v 0.138203 4.005771 -0.053153
v 0.292920 0.010875 -0.330107
v 0.277388 0.014407 -0.378843
v 0.063360 3.398378 0.059705
v 0.047829 3.401910 0.010969
v 0.126978 3.405343 -0.063046
v 0.078124 3.405227 -0.047485
v 0.201045 3.398704 0.015851
v 0.185513 3.402236 -0.032885
v 0.121895 3.395272 0.089865
v 0.170749 3.395388 0.074305
v 0.092243 2.082121 0.002324
v 0.107007 2.088970 -0.104866
v 0.214396 2.085979 -0.090266
v 0.199632 2.079130 0.016924
v 0.076712 2.085653 -0.046412
v 0.155861 2.089086 -0.120427
v 0.229927 2.082447 -0.041530
v 0.150778 2.079015 0.032485
v -0.127714 0.841507 0.058748
v -0.112950 0.848356 -0.048442
v -0.005561 0.845365 -0.033842
v -0.020325 0.838516 0.073348
v -0.143245 0.845039 0.010012
v -0.064096 0.848471 -0.064003
v 0.009971 0.841833 0.014894
v -0.069179 0.838400 0.088909
v -0.119503 1.404443 -0.018580
v -0.040353 1.407875 -0.092594
v 0.033713 1.401237 -0.013697
v -0.045436 1.397804 0.060317
v -0.103971 1.400910 0.030156
v -0.089207 1.407759 -0.077034
v 0.018182 1.404769 -0.062433
v 0.003418 1.397920 0.044757
v -0.195606 2.676996 -0.007927
v -0.116457 2.680428 -0.081942
v -0.042391 2.673790 -0.003045
v -0.121540 2.670357 0.070970
v -0.180075 2.673463 0.040809
v -0.165311 2.680312 -0.066381
v -0.057922 2.677322 -0.051781
v -0.072686 2.670473 0.055409
v -0.101188 0.371315 0.129941
v -0.086424 0.378163 0.022752
v -0.004009 0.411638 0.040519
v -0.018773 0.404789 0.147709
v -0.116720 0.374847 0.081206
v -0.037570 0.378279 0.007191
v 0.011522 0.408106 0.089255
v -0.042653 0.368208 0.160102
vn -0.3052 -0.8046 0.5094
vn 0.8768 0.1334 0.4620
vn -0.0188 -0.9976 -0.0663
vn -0.8818 -0.0934 -0.4623
vn -0.0230 0.7181 -0.6956
vn -0.6982 -0.6949 0.1721
vn -0.3003 -0.1384 -0.9438
vn 0.9521 0.0646 -0.2987
vn 0.3003 0.1384 0.9438
vn 0.0188 0.9976 0.0663
vn 0.3013 -0.1258 0.9452
vn 0.9038 -0.2955 -0.3095
vn -0.3013 0.1258 -0.9452
vn -0.9521 -0.0646 0.2987
vn 0.4551 -0.0539 -0.8888
vn -0.8754 -0.1431 -0.4618
vn 0.8754 0.1431 0.4618
vn -0.4551 0.0539 0.8888
vn -0.3032 0.0485 -0.9517
vn 0.9102 -0.2748 -0.3100
vn 0.3032 -0.0485 0.9517
vn -0.8737 -0.4185 0.2481
vn 0.4528 0.2640 -0.8516
vn -0.8234 -0.3501 -0.4466
vn 0.8234 0.3501 0.4466
vn -0.4528 -0.2640 0.8516
vn 0.2522 0.1588 0.9546
vn 0.9506 -0.0491 -0.3065
vn -0.2993 -0.1593 -0.9408
vn -0.9501 0.0560 0.3068
vn 0.4544 -0.0647 -0.8885
vn -0.8881 0.0142 -0.4595
vn 0.8881 -0.0142 0.4595
vn -0.4544 0.0647 0.8885
vn -0.4449 0.1641 0.8804
vn 0.8689 -0.2324 0.4371
vn -0.8689 0.2324 -0.4371
vn 0.4449 -0.1641 -0.8804
vn -0.9102 0.2748 0.3100
vn 0.3032 0.0358 0.9522
vn 0.9501 -0.0560 -0.3068
vn -0.3032 -0.0358 -0.9522
vn -0.4489 0.1277 0.8844
vn 0.8543 -0.2980 0.4259
vn -0.8543 0.2980 -0.4259
vn 0.4489 -0.1277 -0.8844
vn -0.9038 0.2955 0.3095
vn -0.3024 -0.0774 -0.9500
vn 0.8737 0.4185 -0.2481
vn 0.3024 0.0774 0.9500
vn -0.2291 0.6613 -0.7143
vn 0.7065 0.6857 -0.1754
vn 0.2396 -0.6195 0.7476
vn -0.9529 -0.0079 0.3031
vn 0.4508 -0.1087 -0.8860
vn -0.8787 -0.1196 -0.4622
vn 0.8829 0.0824 0.4623
vn -0.4508 0.1087 0.8860
vn 0.3052 0.8046 -0.5094
vn 0.2991 0.1623 0.9403
vn 0.7156 -0.2456 0.6538
vn 0.7527 -0.1086 -0.6493
vt 0.375000 0.934525
vt 0.190475 0.750000
vt 0.375000 0.000000
vt 0.125000 0.684525
vt 0.375000 0.065475
vt 0.875000 0.684525
vt 0.625000 0.065475
vt 0.625000 0.934525
vt 0.809525 0.750000
vt 0.625000 0.000000
vt 0.375000 0.184525
vt 0.125000 0.565475
vt 0.375000 0.315475
vt 0.190475 0.500000
vt 0.809525 0.500000
vt 0.625000 0.315475
vt 0.875000 0.565475
vt 0.625000 0.184525
vt 0.375000 0.684525
vt 0.309525 0.750000
vt 0.375000 0.815475
vt 0.690475 0.750000
vt 0.625000 0.815475
vt 0.625000 0.684525
vt 0.309525 0.500000
vt 0.375000 0.434525
vt 0.375000 0.565475
vt 0.625000 0.565475
vt 0.690475 0.500000
vt 0.625000 0.434525
vt 0.414157 0.000000
vt 0.414157 0.934525
vt 0.414157 0.065475
vt 0.414157 0.315475
vt 0.414157 0.184525
vt 0.414157 0.565475
vt 0.414157 0.434525
vt 0.414157 0.815475
vt 0.414157 0.684525
vt 0.503482 0.934525
vt 0.503482 0.000000
vt 0.503482 0.184525
vt 0.503482 0.434525
vt 0.503482 0.684525
vt 0.503482 0.065475
vt 0.503482 0.315475
vt 0.503482 0.565475
vt 0.503482 0.815475
vt 0.577853 0.934525
vt 0.577853 0.000000
vt 0.577853 0.184525
vt 0.577853 0.434525
vt 0.577853 0.684525
vt 0.577853 0.065475
vt 0.577853 0.315475
vt 0.577853 0.565475
vt 0.577853 0.815475
vt 0.541555 0.065475
vt 0.541555 0.315475
vt 0.541555 0.565475
vt 0.541555 0.815475
vt 0.541555 0.934525
vt 0.541555 0.000000
vt 0.541555 0.184525
vt 0.541555 0.434525
vt 0.541555 0.684525
vt 0.458373 0.065475
vt 0.458373 0.315475
vt 0.458373 0.565475
vt 0.458373 0.815475
vt 0.458373 0.934525
vt 0.458373 0.000000
vt 0.458373 0.184525
vt 0.458373 0.434525
vt 0.458373 0.684525
vt 0.599289 0.000000
vt 0.599289 0.934525
vt 0.599289 0.184525
vt 0.599289 0.434525
vt 0.599289 0.684525
vt 0.599289 0.065475
vt 0.599289 0.315475
vt 0.599289 0.565475
vt 0.599289 0.815475
s 0
usemtl Material.001
f 64/84/1 57/77/1 4/8/1
f 63/83/2 60/80/2 12/24/2
f 8/17/3 12/24/3 4/9/3
f 3/7/4 61/81/4 58/78/4
f 62/82/5 59/79/5 16/30/5
f 4/10/6 57/76/6 61/81/6
f 6/13/7 19/34/7 20/35/7
f 14/27/8 21/36/8 22/37/8
f 23/38/9 24/39/9 9/19/9
f 14/27/10 2/4/10 10/20/10
f 23/38/11 52/70/11 56/75/11
f 51/69/12 55/74/12 22/37/12
f 50/68/13 54/73/13 20/35/13
f 1/3/14 2/5/14 18/33/14
f 19/34/15 6/13/15 13/26/15
f 2/5/16 5/11/16 20/35/16
f 21/36/17 14/27/17 9/19/17
f 10/21/18 1/1/18 17/32/18
f 42/59/19 46/64/19 26/42/19
f 31/47/20 43/60/20 47/65/20
f 32/48/21 44/61/21 48/66/21
f 53/72/22 49/67/22 29/45/22
f 30/46/23 50/68/23 55/74/23
f 29/45/24 49/67/24 54/73/24
f 51/69/25 56/75/25 28/44/25
f 52/70/26 53/71/26 25/40/26
f 40/57/27 64/84/27 60/80/27
f 39/56/28 63/83/28 59/79/28
f 38/55/29 62/82/29 58/78/29
f 45/63/30 41/58/30 37/54/30
f 38/55/31 42/59/31 47/65/31
f 41/58/32 46/64/32 34/51/32
f 39/56/33 43/60/33 48/66/33
f 44/61/34 45/62/34 33/49/34
f 44/61/35 32/48/35 25/40/35
f 43/60/36 31/47/36 28/44/36
f 29/45/37 26/42/37 46/64/37
f 30/46/38 27/43/38 47/65/38
f 25/41/39 29/45/39 41/58/39
f 44/61/40 40/57/40 36/53/40
f 43/60/41 39/56/41 35/52/41
f 38/55/42 34/51/42 46/64/42
f 52/70/43 23/38/43 17/32/43
f 51/69/44 21/36/44 24/39/44
f 18/33/45 20/35/45 54/73/45
f 19/34/46 22/37/46 55/74/46
f 53/72/47 17/31/47 18/33/47
f 50/68/48 30/46/48 26/42/48
f 51/69/49 31/47/49 27/43/49
f 32/48/50 28/44/50 56/75/50
f 62/82/51 7/16/51 8/18/51
f 15/28/52 16/30/52 59/79/52
f 11/23/53 12/24/53 60/80/53
f 33/50/54 37/54/54 61/81/54
f 62/82/55 38/55/55 35/52/55
f 37/54/56 34/51/56 58/78/56
f 63/83/57 39/56/57 36/53/57
f 40/57/58 33/49/58 57/77/58
f 64/84/1 4/8/1 11/23/1
f 63/83/2 12/24/2 15/28/2
f 12/24/3 16/29/3 15/28/3
f 16/29/3 8/17/3 7/15/3
f 8/17/3 4/9/3 3/6/3
f 4/9/3 12/24/3 11/22/3
f 12/24/3 8/17/3 16/29/3
f 3/7/4 58/78/4 8/18/4
f 62/82/59 16/30/59 7/16/59
f 4/10/6 61/81/6 3/7/6
f 6/13/7 20/35/7 5/11/7
f 14/27/8 22/37/8 13/26/8
f 23/38/9 9/19/9 10/21/9
f 2/4/10 6/14/10 5/12/10
f 6/14/10 14/27/10 13/25/10
f 14/27/10 10/20/10 9/19/10
f 10/20/10 2/4/10 1/2/10
f 2/4/10 14/27/10 6/14/10
f 23/38/11 56/75/11 24/39/11
f 51/69/12 22/37/12 21/36/12
f 50/68/13 20/35/13 19/34/13
f 1/3/14 18/33/14 17/31/14
f 19/34/15 13/26/15 22/37/15
f 2/5/16 20/35/16 18/33/16
f 21/36/17 9/19/17 24/39/17
f 10/21/18 17/32/18 23/38/18
f 42/59/19 26/42/19 30/46/19
f 31/47/20 47/65/20 27/43/20
f 32/48/21 48/66/21 28/44/21
f 53/72/22 29/45/22 25/41/22
f 30/46/23 55/74/23 27/43/23
f 29/45/24 54/73/24 26/42/24
f 51/69/25 28/44/25 31/47/25
f 52/70/26 25/40/26 32/48/26
f 40/57/60 60/80/60 36/53/60
f 39/56/28 59/79/28 35/52/28
f 38/55/29 58/78/29 34/51/29
f 45/63/30 37/54/30 33/50/30
f 38/55/31 47/65/31 35/52/31
f 41/58/32 34/51/32 37/54/32
f 39/56/33 48/66/33 36/53/33
f 44/61/34 33/49/34 40/57/34
f 44/61/35 25/40/35 45/62/35
f 43/60/36 28/44/36 48/66/36
f 29/45/37 46/64/37 41/58/37
f 30/46/38 47/65/38 42/59/38
f 25/41/39 41/58/39 45/63/39
f 44/61/40 36/53/40 48/66/40
f 43/60/41 35/52/41 47/65/41
f 38/55/42 46/64/42 42/59/42
f 52/70/43 17/32/43 53/71/43
f 51/69/44 24/39/44 56/75/44
f 18/33/45 54/73/45 49/67/45
f 19/34/46 55/74/46 50/68/46
f 53/72/47 18/33/47 49/67/47
f 50/68/48 26/42/48 54/73/48
f 51/69/49 27/43/49 55/74/49
f 32/48/50 56/75/50 52/70/50
f 62/82/51 8/18/51 58/78/51
f 15/28/52 59/79/52 63/83/52
f 11/23/61 60/80/61 64/84/61
f 33/50/54 61/81/54 57/76/54
f 62/82/62 35/52/62 59/79/62
f 37/54/56 58/78/56 61/81/56
f 63/83/57 36/53/57 60/80/57
f 40/57/58 57/77/58 64/84/58
o Cube
v -0.531943 4.000000 0.543906
v -0.531943 -0.000000 0.543905
v -2.008131 0.000000 -0.485610
v -2.008131 4.000000 -0.485609
v 0.491869 -0.000000 2.014390
v 0.491869 4.000000 2.014391
v -0.514719 -0.000000 2.014390
v -2.008131 -0.000000 0.520978
v -2.008131 4.000000 0.520979
v -0.514719 4.000000 2.014391
v -0.395049 0.000000 -0.485610
v 0.491869 -0.000000 0.401308
v 0.491869 4.000000 0.401309
v -0.395049 4.000000 -0.485609
v -0.032312 0.031714 -0.224588
v -0.302544 0.027266 0.240949
v -0.200393 0.027266 0.343100
v 0.228158 0.024447 0.035882
v 0.222032 3.963341 0.038361
v -0.208417 3.982159 0.347083
v -0.310568 3.982159 0.244932
v -0.038438 3.963341 -0.222109
vn -0.0000 -1.0000 -0.0000
vn -0.9999 -0.0000 0.0117
vn -1.0000 -0.0000 -0.0000
vn -0.0000 1.0000 -0.0000
vn -0.0000 -0.0000 1.0000
vn -0.0155 -0.0000 0.9999
vn -0.0000 -0.0000 -1.0000
vn 0.8109 0.0016 -0.5851
vn 1.0000 -0.0000 -0.0000
vn 0.3440 0.8737 -0.3440
vn 0.7071 0.0021 -0.7071
vn 0.3342 -0.8717 -0.3585
vn -0.5826 -0.0004 -0.8127
vn 0.8640 0.0012 0.5034
vn 0.5840 0.0014 -0.8118
vn 0.8025 -0.0000 -0.5966
vn -0.0254 -0.9994 0.0254
vn -0.0060 1.0000 0.0060
vn 0.0155 0.9998 0.0124
vn 0.2276 -0.9468 -0.2276
vn -0.5828 -0.0004 -0.8126
vn 0.8648 0.0010 0.5020
vn 0.5943 -0.0000 -0.8043
vt 0.625000 0.074385
vt 0.727381 0.602951
vt 0.272619 0.602952
vt 0.375000 0.074385
vt 0.125000 0.500000
vt 0.375000 0.250000
vt 0.625000 0.250000
vt 0.875000 0.500000
vt 0.375000 0.750000
vt 0.625000 0.750000
vt 0.274341 0.750000
vt 0.375000 0.000000
vt 0.375000 0.850659
vt 0.125000 0.600659
vt 0.375000 0.149341
vt 0.875000 0.600659
vt 0.625000 0.149341
vt 0.625000 0.000000
vt 0.725659 0.750000
vt 0.625000 0.850659
vt 0.286308 0.500000
vt 0.375000 0.425778
vt 0.375000 0.411308
vt 0.375000 0.588692
vt 0.375000 0.574222
vt 0.625000 0.588692
vt 0.625000 0.574222
vt 0.713692 0.500000
vt 0.625000 0.425778
vt 0.625000 0.411308
vt 0.380934 0.439206
vt 0.380934 0.435542
vt 0.382946 0.452755
vt 0.382946 0.547246
vt 0.380934 0.564458
vt 0.380934 0.560794
vt 0.619066 0.560794
vt 0.619066 0.564458
vt 0.617054 0.547245
vt 0.617054 0.452755
vt 0.619066 0.439206
vt 0.619066 0.435542
s 0
usemtl Material
f 66/87/63 67/89/63 75/105/63
f 65/85/64 71/96/64 74/102/64
f 68/91/65 72/99/65 73/101/65
f 65/86/66 68/92/66 73/100/66
f 74/104/67 69/93/67 70/94/67
f 73/101/68 66/88/68 65/85/68
f 78/114/69 67/90/69 68/91/69
f 70/94/66 77/110/66 78/112/66
f 75/105/63 76/108/63 69/93/63
f 78/112/66 65/86/66 70/94/66
f 65/86/66 74/103/66 70/94/66
f 83/122/70 76/108/70 82/119/70
f 69/93/63 71/95/63 66/87/63
f 70/94/71 76/108/71 77/110/71
f 83/121/72 86/125/72 77/111/72
f 80/117/73 84/123/73 81/118/73
f 79/115/74 82/120/74 75/106/74
f 75/105/63 69/93/63 66/87/63
f 81/118/75 83/122/75 82/119/75
f 80/117/76 86/126/76 85/124/76
f 75/107/77 86/126/77 79/116/77
f 66/87/63 72/98/63 67/89/63
f 65/85/64 66/88/64 71/96/64
f 68/91/65 67/90/65 72/99/65
f 65/86/66 78/112/66 68/92/66
f 74/104/67 71/97/67 69/93/67
f 73/101/68 72/99/68 66/88/68
f 78/114/69 75/107/69 67/90/69
f 83/122/78 77/110/78 76/108/78
f 70/94/71 69/93/71 76/108/71
f 83/121/79 84/123/79 85/124/79
f 83/121/79 85/124/79 86/125/79
f 86/125/72 78/113/72 77/111/72
f 80/117/73 85/124/73 84/123/73
f 79/115/80 80/117/80 81/118/80
f 79/115/81 81/118/81 82/120/81
f 82/120/82 76/109/82 75/106/82
f 81/118/83 84/123/83 83/122/83
f 80/117/84 79/116/84 86/126/84
f 75/107/85 78/114/85 86/126/85
