# Blender 3.3.1
# www.blender.org
mtllib Wall_doorway.mtl
o Cube.002
v 1.000000 -0.000000 0.500000
v 1.000000 4.000000 0.500001
v 1.000000 0.000000 -0.500000
v 1.000000 4.000000 -0.499999
v 3.150000 -0.000000 0.500000
v 3.150000 4.000000 0.500001
v 3.150000 0.000000 -0.500000
v 3.150000 4.000000 -0.499999
v 3.150000 2.524538 -0.500000
v 3.150000 2.524538 0.500000
v -3.150000 2.524538 0.500000
v -3.150000 4.000000 0.500001
v -3.150000 4.000000 -0.499999
v -3.150000 2.524538 -0.500000
v -1.000000 4.000000 0.500001
v -1.000000 4.000000 -0.499999
v -3.150000 -0.025462 0.500000
v -3.150000 -0.025462 -0.500000
v -1.000000 -0.025462 0.500000
v -1.000000 -0.025462 -0.500000
v 0.680201 2.524538 0.500000
v 1.000000 2.204738 0.500000
v 1.319799 2.524538 0.500000
v 1.000000 2.844337 0.500000
v 1.000000 2.204738 -0.500000
v 0.680201 2.524538 -0.500000
v 1.000000 2.844337 -0.500000
v 1.319799 2.524538 -0.500000
v -1.000000 2.204738 0.500000
v -0.680201 2.524538 0.500000
v -1.000000 2.844337 0.500000
v -1.319799 2.524538 0.500000
v -0.680201 2.524538 -0.500000
v -1.000000 2.204738 -0.500000
v -1.319799 2.524538 -0.500000
v -1.000000 2.844337 -0.500000
v -1.000000 -0.121876 0.501601
v -1.000000 -0.021876 0.501601
v -1.000000 -0.121876 -0.501601
v -1.000000 -0.021876 -0.501601
v 1.000000 -0.121876 0.501601
v 1.000000 -0.021876 0.501601
v 1.000000 -0.121876 -0.501601
v 1.000000 -0.021876 -0.501601
v -1.000000 -0.050000 -0.000000
v -1.000000 0.050000 0.000000
v 1.000000 -0.050000 -0.000000
v 1.000000 0.050000 0.000000
vn 1.0000 -0.0000 -0.0000
vn -0.0000 -0.0000 -1.0000
vn -1.0000 -0.0000 -0.0000
vn -0.0000 0.9899 -0.1418
vn -0.0000 -0.0000 1.0000
vn -0.0000 0.9899 0.1418
vn -0.0000 1.0000 -0.0000
vn -0.0000 -1.0000 -0.0000
vn 0.7071 -0.7071 -0.0000
vn -0.7071 -0.7071 -0.0000
vn -0.0000 -0.9899 -0.1418
vn -0.0000 -0.9899 0.1418
vt 0.375000 1.000000
vt 0.375000 0.000000
vt 0.125000 0.750000
vt 0.625000 1.000000
vt 0.875000 0.750000
vt 0.375000 0.250000
vt 0.125000 0.500000
vt 0.875000 0.500000
vt 0.625000 0.250000
vt 0.375000 0.750000
vt 0.625000 0.750000
vt 0.375000 0.500000
vt 0.625000 0.500000
vt 0.532784 0.500000
vt 0.532784 0.750000
vt 0.532784 0.000000
vt 0.532784 1.000000
vt 0.625000 0.000000
vt 0.875000 0.750000
vt 0.625000 1.000000
vt 0.875000 0.500000
vt 0.625000 0.250000
vt 0.532784 0.250000
vt 0.625000 1.000000
vt 0.875000 0.750000
vt 0.625000 0.250000
vt 0.875000 0.500000
vt 0.532784 0.000000
vt 0.532784 1.000000
vt 0.532784 0.250000
vt 0.532784 1.000000
vt 0.532784 0.000000
vt 0.532784 0.250000
vt 0.532784 1.000000
vt 0.532784 0.000000
vt 0.512796 1.000000
vt 0.512796 0.000000
vt 0.532784 0.920050
vt 0.552771 1.000000
vt 0.532784 1.000000
vt 0.512796 0.250000
vt 0.532784 0.250000
vt 0.552771 0.250000
vt 0.532784 0.329950
vt 0.532784 1.000000
vt 0.532784 0.000000
vt 0.532784 0.000000
vt 0.532784 1.000000
vt 0.552771 1.000000
vt 0.532784 1.000000
vt 0.532784 1.000000
vt 0.532784 0.250000
vt 0.532784 0.250000
vt 0.532784 0.250000
vt 0.552771 0.250000
vt 0.375000 0.000000
vt 0.125000 0.750000
vt 0.375000 1.000000
vt 0.875000 0.750000
vt 0.625000 0.000000
vt 0.625000 1.000000
vt 0.375000 0.250000
vt 0.125000 0.500000
vt 0.875000 0.500000
vt 0.625000 0.250000
vt 0.375000 0.750000
vt 0.625000 0.750000
vt 0.375000 0.500000
vt 0.625000 0.500000
vt 0.375000 0.125000
vt 0.125000 0.625000
vt 0.875000 0.625000
vt 0.625000 0.125000
vt 0.375000 0.625000
vt 0.625000 0.625000
s 0
usemtl Material
f 6/11/1 9/14/1 8/13/1
f 18/30/2 35/54/2 20/33/2
f 13/22/3 11/16/3 12/18/3
f 18/30/3 11/16/3 14/23/3
f 46/72/4 44/69/4 40/64/4
f 19/32/1 34/53/1 29/46/1
f 6/11/5 24/39/5 23/38/5
f 25/41/3 1/2/3 22/37/3
f 45/70/3 40/65/3 39/62/3
f 38/59/6 48/75/6 46/72/6
f 13/21/7 15/25/7 16/27/7
f 5/10/5 22/36/5 1/1/5
f 17/28/8 20/33/8 19/32/8
f 13/22/2 36/55/2 14/23/2
f 30/47/8 26/42/8 21/35/8
f 2/4/5 30/48/5 24/39/5
f 7/12/2 25/41/2 9/14/2
f 33/52/9 29/46/9 34/53/9
f 5/10/8 3/7/8 7/12/8
f 27/43/2 8/13/2 9/14/2
f 31/49/5 12/20/5 11/17/5
f 26/42/2 28/44/2 25/41/2
f 30/48/5 32/51/5 29/45/5
f 32/51/5 17/29/5 19/31/5
f 23/38/5 21/34/5 22/36/5
f 35/54/2 33/52/2 34/53/2
f 25/41/10 21/35/10 26/42/10
f 4/9/2 33/52/2 16/26/2
f 38/60/3 45/70/3 37/56/3
f 10/15/1 7/12/1 9/14/1
f 44/69/1 47/74/1 43/68/1
f 16/27/7 2/5/7 4/8/7
f 44/69/2 39/62/2 40/65/2
f 41/66/11 45/71/11 47/74/11
f 47/74/12 39/63/12 43/68/12
f 2/5/7 8/13/7 4/8/7
f 47/74/1 42/67/1 41/66/1
f 19/31/5 29/45/5 32/51/5
f 23/38/5 10/15/5 6/11/5
f 6/11/5 2/4/5 24/39/5
f 27/43/2 26/42/2 33/52/2
f 33/52/2 36/55/2 16/26/2
f 11/17/5 32/51/5 31/49/5
f 9/14/2 28/44/2 27/43/2
f 25/41/2 28/44/2 9/14/2
f 10/15/5 23/38/5 22/36/5
f 35/54/2 34/53/2 20/33/2
f 36/55/2 35/54/2 14/23/2
f 30/48/5 21/34/5 24/39/5
f 15/24/5 31/49/5 30/48/5
f 38/61/5 41/66/5 42/67/5
f 6/11/1 10/15/1 9/14/1
f 18/30/2 14/23/2 35/54/2
f 13/22/3 14/23/3 11/16/3
f 18/30/3 17/28/3 11/16/3
f 46/72/4 48/75/4 44/69/4
f 19/32/1 20/33/1 34/53/1
f 25/41/3 3/6/3 1/2/3
f 45/70/3 46/73/3 40/65/3
f 38/59/6 42/67/6 48/75/6
f 13/21/7 12/19/7 15/25/7
f 5/10/5 10/15/5 22/36/5
f 17/28/8 18/30/8 20/33/8
f 13/22/2 16/26/2 36/55/2
f 30/47/8 33/52/8 26/42/8
f 2/4/5 15/24/5 30/48/5
f 7/12/2 3/6/2 25/41/2
f 33/52/9 30/47/9 29/46/9
f 5/10/8 1/3/8 3/7/8
f 27/43/2 4/9/2 8/13/2
f 31/49/5 15/24/5 12/20/5
f 26/42/2 27/43/2 28/44/2
f 30/48/5 31/50/5 32/51/5
f 32/51/5 11/17/5 17/29/5
f 23/38/5 24/40/5 21/34/5
f 35/54/2 36/55/2 33/52/2
f 25/41/10 22/37/10 21/35/10
f 4/9/2 27/43/2 33/52/2
f 38/60/3 46/73/3 45/70/3
f 10/15/1 5/10/1 7/12/1
f 44/69/1 48/75/1 47/74/1
f 16/27/7 15/25/7 2/5/7
f 44/69/2 43/68/2 39/62/2
f 41/66/11 37/57/11 45/71/11
f 47/74/12 45/71/12 39/63/12
f 2/5/7 6/11/7 8/13/7
f 47/74/1 48/75/1 42/67/1
f 38/61/5 37/58/5 41/66/5
