# Blender 3.3.1
# www.blender.org
mtllib Wall_endcap.mtl
o Cube.004
v 0.000000 -0.053519 -0.500000
v 0.000000 3.966887 -0.499997
v 0.000000 -0.053519 0.500000
v 0.000000 3.966887 0.500003
v 1.000000 -0.053519 -0.199511
v 0.670187 -0.053519 -0.500000
v 0.670187 3.966887 -0.499997
v 1.000000 3.966887 -0.199508
v 0.670187 -0.053519 0.500000
v 1.000000 -0.053519 0.199511
v 1.000000 3.966887 0.199514
v 0.670187 3.966887 0.500003
vn -1.0000 -0.0000 -0.0000
vn -0.0000 -0.0000 -1.0000
vn -0.0000 1.0000 -0.0000
vn 1.0000 -0.0000 -0.0000
vn -0.0000 -0.0000 1.0000
vn 0.6735 -0.0000 0.7392
vn 0.6735 -0.0000 -0.7392
vn -0.0000 -1.0000 -0.0000
vt 0.375000 0.000000
vt 0.375000 1.000000
vt 0.125000 0.750000
vt 0.625000 0.000000
vt 0.625000 1.000000
vt 0.875000 0.750000
vt 0.375000 0.250000
vt 0.125000 0.500000
vt 0.875000 0.500000
vt 0.625000 0.250000
vt 0.375000 0.674878
vt 0.375000 0.900244
vt 0.224756 0.750000
vt 0.625000 0.900244
vt 0.775244 0.750000
vt 0.625000 0.674878
vt 0.375000 0.349756
vt 0.224756 0.500000
vt 0.375000 0.575122
vt 0.625000 0.575122
vt 0.775244 0.500000
vt 0.625000 0.349756
s 0
usemtl Material
f 2/4/1 1/1/1 3/7/1
f 7/14/2 6/12/2 1/2/2
f 12/21/3 8/16/3 2/6/3
f 11/20/4 10/19/4 5/11/4
f 4/10/5 3/7/5 9/17/5
f 10/19/6 11/20/6 12/22/6
f 6/12/7 7/14/7 8/16/7
f 9/18/8 1/3/8 5/11/8
f 2/4/1 3/7/1 4/10/1
f 7/14/2 1/2/2 2/5/2
f 8/16/3 12/21/3 11/20/3
f 12/21/3 2/6/3 4/9/3
f 2/6/3 8/16/3 7/15/3
f 11/20/4 5/11/4 8/16/4
f 4/10/5 9/17/5 12/22/5
f 10/19/6 12/22/6 9/17/6
f 6/12/7 8/16/7 5/11/7
f 1/3/8 9/18/8 3/8/8
f 9/18/8 5/11/8 10/19/8
f 5/11/8 1/3/8 6/13/8
